Coordinates
version=1
nRows=24
nColumns=33
inDegrees=yes

Units are S.I. units (second, meters, Newtons, ...)
Angles are in degrees.

endheader
time	ground_thorax_rot_x	ground_thorax_rot_y	ground_thorax_rot_z	ground_thorax_tx	ground_thorax_ty	ground_thorax_tz	clav_prot_r	clav_elev_r	scapula_abduction_r	scapula_elevation_r	scapula_upward_rot_r	scapula_winging_r	shoulder_elv_r	plane_of_elev_r	axial_rot_r	elbow_flexion_r	pro_sup_r	wrist_flex_r	wrist_dev_r	clav_prot_l	clav_elev_l	scapula_abduction_l	scapula_elevation_l	scapula_upward_rot_l	scapula_winging_l	shoulder_elv_l	plane_of_elev_l	axial_rot_l	elbow_flexion_l	pro_sup_l	wrist_flex_l	wrist_dev_l	
7.9100	-20.109717	-39.702510	59.233772	-58.456856	788.316482	-37.225383	24.137090	-45.000000	42.839367	-45.000000	-31.477354	-2643.063680	-2619.816746	142.168232	-180.000000	1066.915819	-298.646039	20.947108	16.565778	-5.143942	33.476761	-25.533340	-45.000000	-45.000000	-989.073738	-1890.178289	136.630957	-128.479331	1789.410964	41.146116	12.472608	-15.443187	
7.9200	-20.575742	-39.527879	58.531559	-60.883564	789.709546	-37.403447	24.112858	-45.000000	42.898539	-45.000000	-31.128718	-2643.009859	-2619.674895	142.196535	-180.000000	1066.948962	-298.827151	21.028013	16.641890	-5.120840	33.499336	-25.685259	-45.000000	-45.000000	-988.995746	-1890.132529	136.592024	-128.436877	1789.421281	41.282018	12.506194	-15.524757	
7.9300	-21.041286	-39.342034	57.825693	-63.294884	791.136900	-37.583053	24.068194	-45.000000	42.942501	-45.000000	-30.782018	-2642.935208	-2619.514234	142.234156	-180.000000	1066.982673	-299.001653	21.117495	16.720572	-5.069369	33.521211	-25.842516	-45.000000	-45.000000	-988.934498	-1890.086335	136.565364	-128.384274	1789.433033	41.421546	12.535311	-15.603427	
7.9400	-21.509444	-39.148145	57.112577	-65.686172	792.592923	-37.761539	24.010102	-45.000000	42.977599	-45.000000	-30.432360	-2642.846474	-2619.344556	142.278827	-180.000000	1067.014720	-299.173476	21.211008	16.798564	-4.999358	33.541736	-26.004981	-45.000000	-45.000000	-988.882313	-1890.039218	136.545381	-128.318014	1789.445840	41.554501	12.562799	-15.679364	
7.9500	-21.988114	-38.939237	56.383822	-68.054294	794.074449	-37.937501	23.921947	-45.000000	42.991509	-45.000000	-30.081874	-2642.731853	-2619.155492	142.338774	-180.000000	1067.050379	-299.346133	21.313509	16.879788	-4.891777	33.562006	-26.177803	-45.000000	-45.000000	-988.850750	-1889.992041	136.537035	-128.231763	1789.457081	41.671935	12.587710	-15.747975	
7.9600	-22.461838	-38.726158	55.655302	-70.397548	795.580712	-38.110692	23.828844	-45.000000	43.005977	-45.000000	-29.727325	-2642.612958	-2618.962557	142.401249	-180.000000	1067.085277	-299.520897	21.415095	16.957501	-4.777873	33.581000	-26.349903	-45.000000	-45.000000	-988.823467	-1889.942482	136.530566	-128.129121	1789.464610	41.768293	12.614583	-15.811936	
7.9700	-22.935525	-38.504546	54.924787	-72.715891	797.113411	-38.281949	23.719196	-45.000000	43.006130	-45.000000	-29.373733	-2642.478520	-2618.754645	142.469339	-180.000000	1067.117014	-299.697714	21.520093	17.038370	-4.643445	33.599702	-26.526234	-45.000000	-45.000000	-988.807347	-1889.888876	136.530815	-128.007446	1789.468429	41.840500	12.642740	-15.869764	
7.9800	-23.404350	-38.279168	54.197246	-75.010111	798.675612	-38.452656	23.610283	-45.000000	43.005246	-45.000000	-29.018433	-2642.344868	-2618.544798	142.537449	-180.000000	1067.148179	-299.877066	21.623271	17.114625	-4.510089	33.618323	-26.703490	-45.000000	-45.000000	-988.788897	-1889.831760	136.528520	-127.871149	1789.469497	41.889035	12.675144	-15.925964	
7.9900	-23.868351	-38.048713	53.472894	-77.281630	800.271112	-38.624438	23.501978	-45.000000	42.999858	-45.000000	-28.664373	-2642.210231	-2618.330510	142.604383	-180.000000	1067.176135	-300.059250	21.724890	17.187725	-4.379114	33.637429	-26.883423	-45.000000	-45.000000	-988.767167	-1889.771407	136.522025	-127.721760	1789.467880	41.916363	12.712706	-15.982370	
8.0000	-24.319912	-37.817248	52.757726	-79.531529	801.903187	-38.798683	23.407131	-45.000000	43.005474	-45.000000	-28.308115	-2642.088903	-2618.121872	142.665859	-180.000000	1067.204157	-300.245363	21.821029	17.250960	-4.268088	33.656758	-27.060788	-45.000000	-45.000000	-988.733215	-1889.710043	136.504849	-127.563967	1789.465793	41.925922	12.757068	-16.043141	
8.0100	-24.757277	-37.585925	52.051939	-81.759938	803.573796	-38.976296	23.327040	-45.000000	43.022385	-45.000000	-27.951115	-2641.980932	-2617.919501	142.719701	-180.000000	1067.231568	-300.436178	21.912038	17.304387	-4.180488	33.676323	-27.234967	-45.000000	-45.000000	-988.685262	-1889.649616	136.475682	-127.399914	1789.463246	41.920502	12.809011	-16.109820	
8.0200	-25.175763	-37.356255	51.359819	-83.965936	805.283415	-39.157763	23.267852	-45.000000	43.061671	-45.000000	-27.589893	-2641.895779	-2617.728926	142.764259	-180.000000	1067.260131	-300.632213	21.995905	17.344668	-4.124781	33.695658	-27.402574	-45.000000	-45.000000	-988.620584	-1889.590744	136.431869	-127.230569	1789.462524	41.901645	12.868467	-16.183902	
8.0300	-25.577211	-37.128155	50.678264	-86.147339	807.030929	-39.343192	23.219609	-45.000000	43.113492	-45.000000	-27.229844	-2641.821064	-2617.545668	142.802873	-180.000000	1067.289943	-300.832878	22.077700	17.377308	-4.087383	33.715325	-27.565229	-45.000000	-45.000000	-988.546396	-1889.533680	136.380176	-127.054367	1789.460953	41.869665	12.933733	-16.262179	
8.0400	-25.967170	-36.895599	50.004968	-88.301125	808.814096	-39.532518	23.167489	-45.000000	43.167276	-45.000000	-26.874993	-2641.745390	-2617.360730	142.843408	-180.000000	1067.322159	-301.036591	22.162860	17.408531	-4.048237	33.735688	-27.727316	-45.000000	-45.000000	-988.474256	-1889.475780	136.327760	-126.865350	1789.460446	41.823348	13.001369	-16.341184	
8.0500	-26.349709	-36.660755	49.335990	-90.423482	810.629665	-39.725536	23.109350	-45.000000	43.213218	-45.000000	-26.529639	-2641.661013	-2617.174946	142.885437	-180.000000	1067.356609	-301.240490	22.254726	17.441019	-4.001455	33.757123	-27.891021	-45.000000	-45.000000	-988.405233	-1889.415519	136.277719	-126.662887	1789.456490	41.761406	13.071235	-16.418227	
8.0600	-26.728963	-36.418575	48.672264	-92.510888	812.474325	-39.922240	23.038955	-45.000000	43.246597	-45.000000	-26.194280	-2641.565934	-2616.982145	142.932479	-180.000000	1067.392145	-301.441082	22.354602	17.477250	-3.938651	33.779581	-28.059372	-45.000000	-45.000000	-988.345057	-1889.349591	136.231851	-126.443175	1789.451827	41.682478	13.141352	-16.491911	
8.0700	-27.102688	-36.174712	48.014045	-94.560060	814.344643	-40.122753	22.964487	-45.000000	43.271153	-45.000000	-25.869081	-2641.462778	-2616.790939	142.980594	-180.000000	1067.428081	-301.634566	22.461238	17.514220	-3.869246	33.802780	-28.229889	-45.000000	-45.000000	-988.287327	-1889.278900	136.188114	-126.210637	1789.443467	41.586354	13.213425	-16.562860	
8.0800	-27.471031	-35.924590	47.364835	-96.568392	816.237401	-40.327412	22.882047	-45.000000	43.287439	-45.000000	-25.553664	-2641.353544	-2616.596039	143.032773	-180.000000	1067.465402	-301.817856	22.574659	17.551736	-3.789678	33.826697	-28.403082	-45.000000	-45.000000	-988.235989	-1889.203185	136.146442	-125.965393	1789.435573	41.473765	13.285930	-16.631586	
8.0900	-27.828896	-35.674143	46.724455	-98.533523	818.149156	-40.536595	22.807872	-45.000000	43.308950	-45.000000	-25.242803	-2641.249725	-2616.411243	143.081187	-180.000000	1067.502986	-301.988873	22.689957	17.582228	-3.722033	33.850545	-28.574700	-45.000000	-45.000000	-988.178898	-1889.125707	136.098659	-125.713799	1789.425956	41.345941	13.362412	-16.701788	
8.1000	-28.175403	-35.418216	46.097259	-100.453505	820.076355	-40.750750	22.733571	-45.000000	43.331097	-45.000000	-24.940053	-2641.148009	-2616.226370	143.129733	-180.000000	1067.543267	-302.146690	22.809442	17.608213	-3.655736	33.874861	-28.745551	-45.000000	-45.000000	-988.123488	-1889.047557	136.048493	-125.458259	1789.417704	41.204769	13.440413	-16.772906	
8.1100	-28.510317	-35.160485	45.482904	-102.326278	822.014869	-40.970212	22.663938	-45.000000	43.354099	-45.000000	-24.646271	-2641.048470	-2616.047570	143.177637	-180.000000	1067.585428	-302.291507	22.933035	17.628608	-3.595655	33.899530	-28.915063	-45.000000	-45.000000	-988.064613	-1888.969829	135.995397	-125.203718	1789.409911	41.051400	13.520787	-16.846360	
8.1200	-28.833729	-34.897942	44.883547	-104.149692	823.960088	-41.195156	22.588452	-45.000000	43.369043	-45.000000	-24.364954	-2640.944060	-2615.865091	143.228464	-180.000000	1067.632843	-302.425090	23.064223	17.647528	-3.527703	33.925178	-29.083833	-45.000000	-45.000000	-988.009969	-1888.893342	135.945310	-124.950985	1789.402615	40.886648	13.601249	-16.920243	
8.1300	-29.146340	-34.633211	44.296818	-105.921300	825.906777	-41.425485	22.515721	-45.000000	43.383240	-45.000000	-24.088931	-2640.841922	-2615.689259	143.279799	-180.000000	1067.680466	-302.549509	23.199571	17.662508	-3.463900	33.951244	-29.251173	-45.000000	-45.000000	-987.953142	-1888.816959	135.893494	-124.702240	1789.394594	40.708850	13.683623	-16.996337	
8.1400	-29.449323	-34.362942	43.723568	-107.638595	827.849391	-41.660817	22.427847	-45.000000	43.381065	-45.000000	-23.824949	-2640.727562	-2615.508169	143.337179	-180.000000	1067.732117	-302.667403	23.344372	17.680817	-3.381449	33.978873	-29.419135	-45.000000	-45.000000	-987.905804	-1888.739854	135.850327	-124.456228	1789.384025	40.517167	13.764691	-17.070076	
